<mxfile host="65bd71144e">
    <diagram id="96KRmkBeoFvQanmds89_" name="Page-1">
        <mxGraphModel dx="612" dy="680" grid="1" gridSize="10" guides="1" tooltips="1" connect="1" arrows="1" fold="1" page="1" pageScale="1" pageWidth="827" pageHeight="1169" math="0" shadow="0">
            <root>
                <mxCell id="0"/>
                <mxCell id="1" parent="0"/>
                <mxCell id="ovQAmrnUi_sFEZGPhHy2-1" value="Client&lt;br&gt;" style="text;html=1;strokeColor=none;fillColor=none;align=center;verticalAlign=middle;whiteSpace=wrap;rounded=0;" parent="1" vertex="1">
                    <mxGeometry x="80" y="140" width="40" height="20" as="geometry"/>
                </mxCell>
                <mxCell id="ovQAmrnUi_sFEZGPhHy2-2" value="Controller&lt;br&gt;" style="text;html=1;strokeColor=none;fillColor=none;align=center;verticalAlign=middle;whiteSpace=wrap;rounded=0;" parent="1" vertex="1">
                    <mxGeometry x="220" y="140" width="40" height="20" as="geometry"/>
                </mxCell>
                <mxCell id="ovQAmrnUi_sFEZGPhHy2-3" value="Model" style="text;html=1;strokeColor=none;fillColor=none;align=center;verticalAlign=middle;whiteSpace=wrap;rounded=0;" parent="1" vertex="1">
                    <mxGeometry x="374" y="140" width="40" height="20" as="geometry"/>
                </mxCell>
                <mxCell id="ovQAmrnUi_sFEZGPhHy2-4" value="View&lt;br&gt;" style="text;html=1;strokeColor=none;fillColor=none;align=center;verticalAlign=middle;whiteSpace=wrap;rounded=0;" parent="1" vertex="1">
                    <mxGeometry x="500" y="140" width="40" height="20" as="geometry"/>
                </mxCell>
                <mxCell id="ovQAmrnUi_sFEZGPhHy2-5" value="" style="rounded=1;whiteSpace=wrap;html=1;rotation=90;fillColor=#60a917;strokeColor=#2D7600;fontColor=#ffffff;" parent="1" vertex="1">
                    <mxGeometry x="-5" y="225" width="190" height="80" as="geometry"/>
                </mxCell>
                <mxCell id="ovQAmrnUi_sFEZGPhHy2-6" value="" style="rounded=1;whiteSpace=wrap;html=1;rotation=90;fillColor=#1ba1e2;strokeColor=#006EAF;fontColor=#ffffff;" parent="1" vertex="1">
                    <mxGeometry x="145" y="225" width="190" height="80" as="geometry"/>
                </mxCell>
                <mxCell id="ovQAmrnUi_sFEZGPhHy2-7" value="" style="rhombus;whiteSpace=wrap;html=1;fillColor=#a20025;strokeColor=#6F0000;fontColor=#ffffff;" parent="1" vertex="1">
                    <mxGeometry x="360" y="170" width="80" height="80" as="geometry"/>
                </mxCell>
                <mxCell id="ovQAmrnUi_sFEZGPhHy2-8" value="" style="rhombus;whiteSpace=wrap;html=1;fillColor=#d80073;strokeColor=#A50040;fontColor=#ffffff;" parent="1" vertex="1">
                    <mxGeometry x="480" y="280" width="80" height="80" as="geometry"/>
                </mxCell>
                <mxCell id="ovQAmrnUi_sFEZGPhHy2-12" value="app" style="text;html=1;strokeColor=none;fillColor=none;align=center;verticalAlign=middle;whiteSpace=wrap;rounded=0;" parent="1" vertex="1">
                    <mxGeometry x="220" y="250" width="40" height="20" as="geometry"/>
                </mxCell>
                <mxCell id="ovQAmrnUi_sFEZGPhHy2-13" value="/peeps" style="text;html=1;strokeColor=none;fillColor=none;align=center;verticalAlign=middle;whiteSpace=wrap;rounded=0;" parent="1" vertex="1">
                    <mxGeometry x="70" y="250" width="40" height="20" as="geometry"/>
                </mxCell>
                <mxCell id="ovQAmrnUi_sFEZGPhHy2-14" value="" style="endArrow=classic;html=1;" parent="1" edge="1">
                    <mxGeometry relative="1" as="geometry">
                        <mxPoint x="110" y="200" as="sourcePoint"/>
                        <mxPoint x="210" y="200" as="targetPoint"/>
                    </mxGeometry>
                </mxCell>
                <mxCell id="ovQAmrnUi_sFEZGPhHy2-15" value="GET" style="edgeLabel;resizable=0;html=1;align=center;verticalAlign=middle;" parent="ovQAmrnUi_sFEZGPhHy2-14" connectable="0" vertex="1">
                    <mxGeometry relative="1" as="geometry"/>
                </mxCell>
                <mxCell id="ovQAmrnUi_sFEZGPhHy2-16" value="" style="endArrow=classic;html=1;" parent="1" target="ovQAmrnUi_sFEZGPhHy2-5" edge="1">
                    <mxGeometry relative="1" as="geometry">
                        <mxPoint x="210" y="319.65999999999997" as="sourcePoint"/>
                        <mxPoint x="310" y="319.65999999999997" as="targetPoint"/>
                    </mxGeometry>
                </mxCell>
                <mxCell id="ovQAmrnUi_sFEZGPhHy2-17" value="response" style="edgeLabel;resizable=0;html=1;align=center;verticalAlign=middle;" parent="ovQAmrnUi_sFEZGPhHy2-16" connectable="0" vertex="1">
                    <mxGeometry relative="1" as="geometry"/>
                </mxCell>
                <mxCell id="2" value="Peep" style="text;html=1;strokeColor=none;fillColor=none;align=center;verticalAlign=middle;whiteSpace=wrap;rounded=0;" vertex="1" parent="1">
                    <mxGeometry x="380" y="200" width="40" height="20" as="geometry"/>
                </mxCell>
                <mxCell id="4" style="edgeStyle=orthogonalEdgeStyle;rounded=0;orthogonalLoop=1;jettySize=auto;html=1;exitX=0.25;exitY=1;exitDx=0;exitDy=0;entryX=0.75;entryY=0;entryDx=0;entryDy=0;" edge="1" parent="1" source="3" target="ovQAmrnUi_sFEZGPhHy2-6">
                    <mxGeometry relative="1" as="geometry">
                        <mxPoint x="400" y="370" as="targetPoint"/>
                    </mxGeometry>
                </mxCell>
                <mxCell id="3" value="erb peep&lt;br&gt;" style="text;html=1;strokeColor=none;fillColor=none;align=center;verticalAlign=middle;whiteSpace=wrap;rounded=0;" vertex="1" parent="1">
                    <mxGeometry x="500" y="305" width="40" height="20" as="geometry"/>
                </mxCell>
            </root>
        </mxGraphModel>
    </diagram>
</mxfile>